<?xml version="1.0" standalone="no"?>
<!DOCTYPE svg PUBLIC "-//W3C//DTD SVG 20010904//EN" "http://www.w3.org/TR/2001/REC-SVG-20010904/DTD/svg10.dtd">
<!-- Created using Krita: https://krita.org -->
<svg xmlns="http://www.w3.org/2000/svg" 
    xmlns:xlink="http://www.w3.org/1999/xlink"
    xmlns:krita="http://krita.org/namespaces/svg/krita"
    xmlns:sodipodi="http://sodipodi.sourceforge.net/DTD/sodipodi-0.dtd"
    width="9.216pt"
    height="9.216pt"
    viewBox="0 0 9.216 9.216">
<defs/>
<path id="shape0" transform="matrix(0.072 0 0 0.072 4.60800000000002 2.29968)" fill="#00599c" stroke-opacity="0" stroke="#000000" stroke-width="0" stroke-linecap="square" stroke-linejoin="bevel" d="M54.766 63.88C55.656 62.337 56.207 60.6 56.207 59.037L56.207 4.84C56.207 3.282 55.657 1.543 54.766 0L0 32.06ZM54.766 63.88" sodipodi:nodetypes="ccccccc"/><path id="shape1" transform="matrix(0.072 0 0 0.072 0.58464 4.59936)" fill="#004482" stroke-opacity="0" stroke="#000000" stroke-width="0" stroke-linecap="square" stroke-linejoin="bevel" d="M60.24 62.706L107.173 35.612C108.525 34.831 109.755 33.483 110.646 31.94L55.326 0L0 31.94C0.89 33.483 2.121 34.83 3.473 35.612L50.406 62.706C53.109 64.268 57.536 64.268 60.238 62.706ZM60.24 62.706" sodipodi:nodetypes="cccccccccc"/><path id="shape2" transform="matrix(0.072 0 0 0.072 0.572903999999999 0.00951250672182031)" fill="#659ad2" stroke-opacity="0" stroke="#000000" stroke-width="0" stroke-linecap="square" stroke-linejoin="bevel" d="M112.086 31.9413C111.195 30.3953 109.965 29.0472 108.613 28.2703L61.679 1.17225C58.976 -0.39075 54.55 -0.39075 51.847 1.17225L4.914 28.2703C2.21 29.8283 0 33.6602 0 36.7803L0 90.9762C0 92.5382 0.55 94.2762 1.441 95.8192L56.765 63.8803ZM112.086 31.9413" sodipodi:nodetypes="ccccccccccc"/><path id="shape3" transform="matrix(0.072 0 0 0.072 1.843344 1.874448)" fill="#ffffff" stroke-opacity="0" stroke="#000000" stroke-width="0" stroke-linecap="square" stroke-linejoin="bevel" d="M37.843 0.001C16.976 0.001 0 16.978 0 37.845C0 58.712 16.976 75.689 37.843 75.689C51.308 75.689 63.867 68.442 70.613 56.779L54.238 47.301C50.858 53.141 44.578 56.766 37.843 56.766C27.41 56.766 18.921 48.278 18.921 37.844C18.921 27.41 27.411 18.922 37.843 18.922C44.573 18.922 50.86 22.551 54.233 28.387L70.613 18.91C63.863 7.246 51.308 0 37.843 0Z" sodipodi:nodetypes="cccccccccccc"/>
</svg>
